<svg xmlns="http://www.w3.org/2000/svg" viewBox="0 0 256 256">
  <defs>
    <linearGradient id="paper" x1="32" y1="20" x2="223" y2="238" gradientUnits="userSpaceOnUse">
      <stop stop-color="#FFFDF6"/>
      <stop offset="1" stop-color="#EAE4D5"/>
    </linearGradient>
    <filter id="shadow" x="-20%" y="-20%" width="140%" height="150%">
      <feDropShadow dx="0" dy="12" stdDeviation="10" flood-color="#13231D" flood-opacity=".22"/>
    </filter>
  </defs>
  <rect width="256" height="256" rx="58" fill="#1F6B4F"/>
  <path d="M22 65C58 30 112 20 160 37s68 52 74 88c6 39-8 82-42 105H22V65Z" fill="#58D49A" opacity=".3"/>
  <g filter="url(#shadow)">
    <rect x="42" y="55" width="151" height="133" rx="13" fill="url(#paper)" stroke="#17211D" stroke-width="9"/>
    <circle cx="88" cy="94" r="17" fill="#E7682F" stroke="#17211D" stroke-width="8"/>
    <path d="m53 172 43-43 31 28 25-23 32 31" fill="none" stroke="#17211D" stroke-width="10" stroke-linecap="round" stroke-linejoin="round"/>
  </g>
  <path d="M181 70c29 6 51 32 49 62-1 17-8 32-20 43" fill="none" stroke="#FFFDF6" stroke-width="13" stroke-linecap="round"/>
  <path d="m193 170 18 7 7-18" fill="none" stroke="#FFFDF6" stroke-width="13" stroke-linecap="round" stroke-linejoin="round"/>
</svg>
